<svg id="Layer_1" height="512" viewBox="0 0 512 512" width="512" xmlns="http://www.w3.org/2000/svg" data-name="Layer 1"><path d="m42 171h428v241h-428z" fill="#91b1c4"/><path d="m42 171h30v241h-30z" fill="#738e9b"/><path d="m467.41 94h-422.82a13.687 13.687 0 0 0 -13.59 13.99v18.01h450v-18.01a13.687 13.687 0 0 0 -13.59-13.99z" fill="#a0eaea"/><path d="m360.43 222.63v137.21a5.508 5.508 0 0 1 -5.51 5.51h-197.84a5.508 5.508 0 0 1 -5.51-5.51v-137.21a5.514 5.514 0 0 1 5.51-5.51h197.84a5.514 5.514 0 0 1 5.51 5.51z" fill="#e87187"/><path d="m278.04 265.2-22.04 71.64v-42.99l-22.04 11.03 11.02-67.78h22.04l-11.99 39.15z" fill="#f3ce7d"/><path d="m433.42 71h-41.905a5.638 5.638 0 0 0 -5.515 5.73v49.27h53v-49.27a5.693 5.693 0 0 0 -5.58-5.73z" fill="#6d7486"/><path d="m119.69 71h-41.535c-3.08 0-6.155 2.62-6.155 5.73v49.27h53v-49.27a5.471 5.471 0 0 0 -5.31-5.73z" fill="#6d7486"/><path d="m419.59 53h-14.05a9.416 9.416 0 0 0 -9.54 9.63v8.37h33v-8.37a9.309 9.309 0 0 0 -9.41-9.63z" fill="#72bcef"/><path d="m105.86 53h-14.05a9.643 9.643 0 0 0 -9.81 9.63v8.37h34v-8.37c0-5.45-4.73-9.63-10.14-9.63z" fill="#72bcef"/><path d="m491.97 125h-471.94a3.754 3.754 0 0 0 -4.03 3.69v39.28a4.037 4.037 0 0 0 4.03 4.03h471.94a4.037 4.037 0 0 0 4.03-4.03v-39.28a3.754 3.754 0 0 0 -4.03-3.69z" fill="#a4bdc1"/><path d="m472.27 411h-432.54a17.781 17.781 0 0 0 -17.73 18.01v29.99h468v-29.99a17.781 17.781 0 0 0 -17.73-18.01z" fill="#a4bdc1"/><path d="m46 167.97v-39.28a3.754 3.754 0 0 1 4.03-3.69h-30a3.754 3.754 0 0 0 -4.03 3.69v39.28a4.037 4.037 0 0 0 4.03 4.03h30a4.037 4.037 0 0 1 -4.03-4.03z" fill="#859799"/><path d="m69.73 411h-30a17.781 17.781 0 0 0 -17.73 18.01v29.99h30v-29.99a17.781 17.781 0 0 1 17.73-18.01z" fill="#859799"/><path d="m129.384 288h-11.384v-11.4a6 6 0 0 0 -12 0v11.4h-10.656a6 6 0 0 0 0 12h10.656v10.908a6 6 0 0 0 12 0v-10.908h11.384a6 6 0 1 0 0-12z" fill="#4689d3"/><path d="m419.509 299.755h-34.04a6 6 0 1 1 0-12h34.04a6 6 0 0 1 0 12z" fill="#4689d3"/><g fill="#f4f8fc"><path d="m67.167 327.181a6 6 0 0 1 -6-6v-101.756a6 6 0 0 1 12 0v101.756a6 6 0 0 1 -6 6z"/><path d="m67.167 206.741a6 6 0 0 1 -6-6v-4.884a6 6 0 0 1 12 0v4.884a6 6 0 0 1 -6 6z"/></g></svg>