<svg id="Layer_1" height="512" viewBox="0 0 512 512" width="512" xmlns="http://www.w3.org/2000/svg" data-name="Layer 1"><path d="m271.02 47.705c-1.89 0-3.79.3-5.67.3h-.35l-146 63.38-72 154.615v.06c0 1.89-.155 3.78-.155 5.68 0 123.85 100.367 224.26 224.217 224.26s224.238-100.3 224.238-224.148-100.42-224.147-224.28-224.147z" fill="#80aaff"/><path d="m76.845 271.74c0-1.9.155-3.79.155-5.68v-.06l72-154.615 144.174-62.592q-10.933-1.071-22.154-1.088c-1.89 0-3.79.3-5.67.3h-.35l-146 63.38-72 154.615v.06c0 1.89-.155 3.78-.155 5.68 0 123.85 100.367 224.26 224.217 224.26 5.044 0 10.045-.183 15-.511-116.848-7.718-209.217-104.94-209.217-223.749z" fill="#6a8dc6"/><path d="m270.92 138.24a133.5 133.5 0 1 1 -133.5 133.5 133.5 133.5 0 0 1 133.5-133.5z" fill="#7cadc2"/><circle cx="270.92" cy="271.74" fill="#a3bee3" r="26.7"/><path d="m366.33 271.74h-42.91a52.186 52.186 0 0 0 -15.31-37.01l.09-.08 30.27-30.27a95.036 95.036 0 0 1 27.86 67.36z" fill="#9084a3"/><path d="m323.56 271.74h42.77a95.036 95.036 0 0 1 -27.86 67.36l-30.27-30.27-.09-.09a52.18 52.18 0 0 0 15.31-37z" fill="#7b6f98"/><path d="m338.47 339.1a95.054 95.054 0 0 1 -67.36 28.01v-42.98a52.2 52.2 0 0 0 37-15.39l.09.09z" fill="#9084a3"/><path d="m271.11 176.36a95.021 95.021 0 0 1 67.36 28.02l-30.27 30.27-.09.08a52.23 52.23 0 0 0 -37-15.38z" fill="#7b6f98"/><path d="m271.11 324.19v42.92h-.16a95.087 95.087 0 0 1 -67.36-27.85l.08-.08 30.34-30.35.01-.01a52.228 52.228 0 0 0 37.01 15.31h.08z" fill="#7b6f98"/><path d="m271.11 219.28v.07h-.08a52.186 52.186 0 0 0 -37.01 15.31l-.01-.01-30.34-30.35-.08-.08a95.1 95.1 0 0 1 67.36-27.86h.16z" fill="#9084a3"/><path d="m16.72 266h85.58c0-91 73.7-164.41 162.7-164.41v-85.59c-136 0-248.28 113-248.28 250z" fill="#6d7486"/><path d="m218.64 271.74a52.216 52.216 0 0 0 15.38 37.08l-.01.01-30.34 30.35-.08.08a95.1 95.1 0 0 1 -28.01-67.52z" fill="#9084a3"/><path d="m234.02 234.66a52.216 52.216 0 0 0 -15.38 37.08h-43.06a95.086 95.086 0 0 1 28.01-67.52l.08.08 30.34 30.35z" fill="#7b6f98"/><circle cx="217" cy="61.77" fill="#b0b5ca" r="15"/><circle cx="163" cy="82.77" fill="#b0b5ca" r="15"/><circle cx="121" cy="117.77" fill="#b0b5ca" r="15"/><circle cx="86" cy="164.77" fill="#b0b5ca" r="15"/><circle cx="67" cy="218.77" fill="#b0b5ca" r="15"/><g fill="#284268"><path d="m131.421 271.739c0 76.92 62.579 139.5 139.5 139.5s139.5-62.58 139.5-139.5-62.579-139.5-139.5-139.5-139.5 62.579-139.5 139.5zm139.5-127.5a127.5 127.5 0 1 1 -127.5 127.5 127.644 127.644 0 0 1 127.5-127.5z"/><path d="m270.921 304.438a32.7 32.7 0 1 0 -32.7-32.7 32.736 32.736 0 0 0 32.7 32.7zm0-53.4a20.7 20.7 0 1 1 -20.7 20.7 20.723 20.723 0 0 1 20.7-20.699z"/><path d="m270.952 373.114a101.376 101.376 0 1 0 -101.375-101.375 101.49 101.49 0 0 0 101.375 101.375zm-89.169-95.114h31.162a59.834 59.834 0 0 0 12.829 30.717l-22.016 22.083a89.27 89.27 0 0 1 -21.975-52.8zm83.217 82.918a89.342 89.342 0 0 1 -52.827-21.84l22.042-22.016a56.716 56.716 0 0 0 30.785 12.769zm12-.02v-31.085a56.975 56.975 0 0 0 30.824-12.819l21.911 21.939a89.384 89.384 0 0 1 -52.735 21.967zm61.291-30.264-21.937-22a59.7 59.7 0 0 0 12.76-30.634h31.007a89.071 89.071 0 0 1 -21.83 52.634zm21.83-64.634h-31.007a57.19 57.19 0 0 0 -12.76-30.891l21.937-21.874a89.445 89.445 0 0 1 21.83 52.765zm-83.121-83.421a89.384 89.384 0 0 1 52.735 21.965l-21.911 21.939a56.983 56.983 0 0 0 -30.824-12.819zm-5.971 42.769a46.391 46.391 0 1 1 -46.391 46.391 46.445 46.445 0 0 1 46.391-46.391zm-6.029-42.788v31.087a56.715 56.715 0 0 0 -30.785 12.768l-22.042-22.015a89.335 89.335 0 0 1 52.827-21.84zm-61.242 30.446 22.016 22.081a57.121 57.121 0 0 0 -12.829 30.913h-31.162a89.829 89.829 0 0 1 21.975-52.994z"/><path d="m229.42 131.521a5.99 5.99 0 0 0 1.2-.121c2.139-.433 4.314-.815 6.465-1.135a6 6 0 1 0 -1.77-11.869c-2.355.351-4.736.769-7.077 1.244a6 6 0 0 0 1.184 11.881z"/><path d="m133.524 203.376a6 6 0 0 0 8.017-2.78 127.367 127.367 0 0 1 64.72-61.632 6 6 0 0 0 -4.7-11.042 139.363 139.363 0 0 0 -70.818 67.437 6 6 0 0 0 2.781 8.017z"/><path d="m16.715 272h24.051a230.259 230.259 0 0 0 393.077 162.558 230.619 230.619 0 0 0 -162.82-393.558h-.023v-25a6 6 0 0 0 -6-6c-67.393 0-131.1 26.776-179.4 75.4s-74.885 112.752-74.885 180.6a6 6 0 0 0 6 6zm254.285-170.413v-48.587h.023a218.556 218.556 0 0 1 154.334 373.013 218.235 218.235 0 0 1 -372.591-154.013h49.534a6 6 0 0 0 6-6 158.018 158.018 0 0 1 46.23-112.1c29.684-29.864 68.916-46.311 110.468-46.311a6 6 0 0 0 6.002-6.002zm-176.886-7.733c44.586-44.888 102.941-70.239 164.886-71.779v73.618c-88.28 3.136-159.526 75.12-162.595 164.307h-73.617c1.519-62.431 26.712-121.231 71.326-166.146z"/><path d="m67 197.77a21 21 0 1 0 21 21 21.023 21.023 0 0 0 -21-21zm0 30a9 9 0 1 1 9-9 9.011 9.011 0 0 1 -9 9z"/><path d="m86 185.77a21 21 0 1 0 -21-21 21.023 21.023 0 0 0 21 21zm0-30a9 9 0 1 1 -9 9 9.011 9.011 0 0 1 9-9z"/><path d="m121 138.77a21 21 0 1 0 -21-21 21.023 21.023 0 0 0 21 21zm0-30a9 9 0 1 1 -9 9 9.011 9.011 0 0 1 9-9z"/><path d="m163 103.77a21 21 0 1 0 -21-21 21.023 21.023 0 0 0 21 21zm0-30a9 9 0 1 1 -9 9 9.011 9.011 0 0 1 9-9z"/><path d="m217 82.77a21 21 0 1 0 -21-21 21.023 21.023 0 0 0 21 21zm0-30a9 9 0 1 1 -9 9 9.011 9.011 0 0 1 9-9z"/></g></svg>