<svg id="Layer_1" height="512" viewBox="0 0 512 512" width="512" xmlns="http://www.w3.org/2000/svg" data-name="Layer 1"><path d="m135.13 67a36.737 36.737 0 0 0 -34.57 24.19l-35.53 97.81h224.97v-122z" fill="#6addc7"/><path d="m165.13 67h-30a36.737 36.737 0 0 0 -34.57 24.19l-35.53 97.81h30l35.53-97.81a36.737 36.737 0 0 1 34.57-24.19z" fill="#53ad9c"/><path d="m65.03 189h-1.9a35.365 35.365 0 0 0 -35.13 35.19v97.81h141.72l120.28-27.93v-105.07z" fill="#e87187"/><path d="m114.14 424.88a17.161 17.161 0 0 1 -17.03 17.28l-46.49.31a17.155 17.155 0 0 1 -17.28-17.03l-.38-53.93v-.7h80.81v.13z" fill="#6d7486"/><path d="m290 319.38v2.5h-124.28l24.15-31.81h100.13z" fill="#b0b5ca"/><path d="m145.27 216.11 11.35 58.7h-62.75a29.35 29.35 0 0 1 0-58.7z" fill="#f3ce7d"/><path d="m496 289.11v-72.65l-47.44-8.14a164.215 164.215 0 0 0 -14.91-36.08l27.83-39.43-51.22-51.37-39.31 27.91c-11.24-6.34-23.29-9.3-35.97-12.86l-8.12-45.49h-36.86v410h36.86l8.12-48.7c12.68-3.57 24.73-9.18 35.97-15.52l39.31 27.63 51.22-51.51-27.83-39.5a164.452 164.452 0 0 0 14.91-36.11z" fill="#6994fe"/><path d="m290 371.81v-52.43h.64a66.52 66.52 0 0 0 0-133.04h-.64v-56.69h.64c67.85 0 122.84 55.16 122.84 123.21s-54.99 123.21-122.84 123.21h-.64z" fill="#5278c6"/><path d="m93.13 189h-30a35.365 35.365 0 0 0 -35.13 35.19v97.81h30v-97.81a35.365 35.365 0 0 1 35.13-35.19z" fill="#bc5e72"/><path d="m63.36 425.44-.36-53.93v-.51h-30v.51l.36 53.93a17.146 17.146 0 0 0 17.27 17.03l27.508-.183a17.141 17.141 0 0 1 -14.778-16.847z" fill="#525763"/><path d="m20.57 321a4.474 4.474 0 0 0 -4.57 4.45v42.79a4.741 4.741 0 0 0 4.57 4.76h269.43v-52z" fill="#6d6d93"/><path d="m46 368.24v-42.79a4.474 4.474 0 0 1 4.57-4.45h-30a4.474 4.474 0 0 0 -4.57 4.45v42.79a4.741 4.741 0 0 0 4.57 4.76h30a4.741 4.741 0 0 1 -4.57-4.76z" fill="#595975"/><g fill="#844052"><path d="m189.315 264a6 6 0 0 0 6 6h94.685v-12h-94.685a6 6 0 0 0 -6 6z"/><path d="m195.315 216a6 6 0 0 0 0 12h94.685v-12z"/><path d="m189.315 244a6 6 0 0 0 6 6h94.685v-12h-94.685a6 6 0 0 0 -6 6z"/></g><path d="m251.162 101h-101.756a6 6 0 0 1 0-12h101.756a6 6 0 0 1 0 12z" fill="#f4f8fc"/><path d="m130.723 101h-4.885a6 6 0 0 1 0-12h4.885a6 6 0 0 1 0 12z" fill="#f4f8fc"/></svg>