<svg id="flat" height="512" viewBox="0 0 512 512" width="512" xmlns="http://www.w3.org/2000/svg"><path d="m104 48h304a32 32 0 0 1 32 32v376a32 32 0 0 1 -32 32h-304a32 32 0 0 1 -32-32v-376a32 32 0 0 1 32-32z" fill="#548aff"/><rect fill="#e0edff" height="408" rx="16" width="304" x="104" y="48"/><path d="m344 104v-32l-58.68721-39.12481a52.84438 52.84438 0 0 0 -29.31279-8.87519 52.84438 52.84438 0 0 0 -29.31277 8.87519l-58.68723 39.12481v32z" fill="#ffc431"/><circle cx="256" cy="56" fill="#ffa100" r="8"/><path d="m248 199.44a24.58241 24.58241 0 0 1 -24.56 24.56h-23.44v24h-24v-40l-40-24 16-24 24 16v-40h24v32h10.59a39.9704 39.9704 0 0 1 33.28 17.81 24.66606 24.66606 0 0 1 4.13 13.63z" fill="#ef5e3b"/><g fill="#bdd1f2"><path d="m288 160h16v16h-16z"/><path d="m320 160h48v16h-48z"/><path d="m272 192h48v16h-48z"/><path d="m336 192h32v16h-32z"/><path d="m272 224h24v16h-24z"/><path d="m312 224h56v16h-56z"/><path d="m288 288h16v16h-16z"/><path d="m320 288h48v16h-48z"/><path d="m272 320h48v16h-48z"/><path d="m336 320h32v16h-32z"/><path d="m272 352h24v16h-24z"/><path d="m312 352h56v16h-56z"/><path d="m200 408h24v16h-24z"/><path d="m240 408h128v16h-128z"/><path d="m136 328 15.02945 15.02945a57.94108 57.94108 0 0 0 40.97055 16.97055 57.94108 57.94108 0 0 0 40.97053-16.97055l15.02947-15.02945-15.02945-15.02945a57.94108 57.94108 0 0 0 -40.97055-16.97055 57.94108 57.94108 0 0 0 -40.97053 16.97055z"/></g><circle cx="192" cy="328" fill="#548aff" r="24"/><path d="m246.46 208a24.60689 24.60689 0 0 1 -23.02 16h-23.44a15.99555 15.99555 0 0 1 16-16z" fill="#e35430"/></svg>